<svg width="393" height="416" viewBox="0 0 393 416" fill="none" xmlns="http://www.w3.org/2000/svg">
<g opacity="0.04">
<path d="M-124.218 297.727L421.696 -69.3998L395.482 -91.3609L398.587 -86.745C400.509 -83.8857 399.749 -80.0095 396.891 -78.0884L306.823 -17.5189C303.964 -15.5967 300.089 -16.3555 298.166 -19.2135L257.09 -80.2932C255.168 -83.1524 255.926 -87.0274 258.784 -88.9507L336.207 -141.017L333.081 -143.636L328.481 -140.543C327.442 -139.844 326.047 -140.117 325.347 -141.157L321.807 -146.422C321.113 -147.453 321.381 -148.855 322.421 -149.555L324.416 -150.897L319.913 -154.67L-225.999 212.459L-221.496 216.232L-219.107 214.626C-218.068 213.927 -216.667 214.209 -215.974 215.24L-212.433 220.505C-211.783 221.473 -211.983 222.741 -212.851 223.476L-209.706 226.111L-181.445 207.105C-178.586 205.183 -174.711 205.942 -172.789 208.801L-131.712 269.881C-129.79 272.74 -130.549 276.615 -133.407 278.538L-141.017 283.655L-132.92 290.439L-134.54 288.03C-135.233 287 -134.966 285.597 -133.925 284.897L-126.788 280.097C-125.749 279.398 -124.348 279.68 -123.654 280.711L-120.109 285.984C-119.415 287.015 -119.683 288.418 -120.723 289.117L-127.86 293.918C-128.045 294.042 -128.243 294.125 -128.444 294.188L-124.218 297.727ZM-165.451 196.35L-75.3839 135.781C-72.5246 133.859 -68.6496 134.617 -66.7263 137.476L-25.6502 198.555C-23.728 201.414 -24.4868 205.289 -27.3449 207.213L-117.412 267.782C-120.272 269.705 -124.147 268.946 -126.07 266.088L-167.146 205.008C-169.069 202.148 -168.311 198.273 -165.451 196.35ZM78.714 135.886L-11.3535 196.456C-14.2128 198.378 -18.0878 197.619 -20.0111 194.761L-61.0871 133.682C-63.0094 130.822 -62.2506 126.947 -59.3925 125.024L30.675 64.4545C33.5333 62.5334 37.4093 63.2911 39.3315 66.1504L80.4076 127.23C82.3299 130.089 81.571 133.964 78.714 135.886ZM86.048 123.437L44.9719 62.3574C43.0496 59.4982 43.8085 55.6232 46.6665 53.6999L136.732 -6.86947C139.591 -8.79174 143.466 -8.03291 145.389 -5.17485L186.465 55.9048C188.388 58.764 187.629 62.6391 184.77 64.5613L94.7033 125.132C91.8453 127.055 87.9702 126.296 86.048 123.437ZM-199.347 204.058L-195.806 209.323C-195.108 210.362 -195.38 211.757 -196.42 212.457L-203.558 217.257C-204.597 217.956 -205.991 217.683 -206.691 216.643L-210.232 211.378C-210.926 210.347 -210.658 208.944 -209.618 208.245L-202.48 203.444C-201.441 202.746 -200.04 203.028 -199.347 204.058ZM-182.721 192.878L-179.181 198.143C-178.482 199.182 -178.755 200.576 -179.795 201.276L-186.932 206.076C-187.971 206.775 -189.366 206.502 -190.066 205.462L-193.606 200.197C-194.3 199.167 -194.033 197.764 -192.992 197.064L-185.855 192.264C-184.816 191.565 -183.415 191.847 -182.721 192.878ZM-166.095 181.696L-162.554 186.961C-161.855 188 -162.128 189.394 -163.168 190.094L-170.306 194.895C-171.345 195.593 -172.739 195.321 -173.438 194.281L-176.979 189.017C-177.672 187.986 -177.405 186.583 -176.364 185.883L-169.227 181.083C-168.189 180.383 -166.788 180.665 -166.095 181.696ZM-149.469 170.515L-145.928 175.78C-145.23 176.819 -145.502 178.214 -146.542 178.914L-153.68 183.714C-154.719 184.413 -156.113 184.14 -156.813 183.1L-160.354 177.835C-161.048 176.804 -160.78 175.401 -159.74 174.702L-152.602 169.901C-151.563 169.203 -150.162 169.485 -149.469 170.515ZM-132.842 159.334L-129.302 164.598C-128.603 165.638 -128.875 167.032 -129.916 167.732L-137.053 172.532C-138.092 173.231 -139.487 172.958 -140.187 171.918L-143.727 166.653C-144.421 165.622 -144.153 164.22 -143.113 163.52L-135.976 158.719C-134.936 158.021 -133.536 158.303 -132.842 159.334ZM-116.217 148.153L-112.676 153.418C-111.977 154.457 -112.25 155.851 -113.29 156.551L-120.427 161.352C-121.467 162.05 -122.861 161.778 -123.561 160.737L-127.102 155.473C-127.795 154.442 -127.528 153.039 -126.488 152.339L-119.35 147.539C-118.31 146.839 -116.91 147.122 -116.217 148.153ZM-99.5899 136.971L-96.0492 142.236C-95.3505 143.275 -95.6231 144.67 -96.6634 145.369L-103.801 150.17C-104.84 150.868 -106.234 150.596 -106.934 149.556L-110.475 144.291C-111.168 143.26 -110.901 141.857 -109.862 141.159L-102.724 136.358C-101.684 135.658 -100.282 135.941 -99.5899 136.971ZM-82.9632 125.789L-79.4225 131.054C-78.7238 132.093 -78.9964 133.488 -80.0366 134.188L-87.1741 138.988C-88.2134 139.687 -89.6077 139.414 -90.3076 138.374L-93.8483 133.109C-94.5417 132.078 -94.2744 130.675 -93.2341 129.976L-86.0967 125.175C-85.0562 124.478 -83.6566 124.759 -82.9632 125.789ZM-66.3375 114.609L-62.7968 119.874C-62.0982 120.913 -62.3707 122.307 -63.411 123.007L-70.5485 127.807C-71.5877 128.506 -72.9821 128.233 -73.6819 127.193L-77.2226 121.928C-77.9161 120.898 -77.6487 119.495 -76.6085 118.795L-69.471 113.995C-68.4318 113.296 -67.0298 113.579 -66.3375 114.609ZM-49.7108 103.427L-46.1702 108.692C-45.4715 109.731 -45.7441 111.125 -46.7843 111.825L-53.9218 116.626C-54.961 117.324 -56.3554 117.052 -57.0553 116.011L-60.596 110.747C-61.2894 109.716 -61.0221 108.313 -59.9818 107.613L-52.8443 102.813C-51.8039 102.115 -50.4043 102.396 -49.7108 103.427ZM-33.0852 92.2464L-29.5445 97.5112C-28.8458 98.5504 -29.1184 99.9448 -30.1587 100.645L-37.2961 105.445C-38.3354 106.144 -39.7297 105.871 -40.4296 104.831L-43.9703 99.566C-44.6638 98.5352 -44.3964 97.1324 -43.3561 96.4325L-36.2187 91.6322C-35.1782 90.9346 -33.7774 91.2166 -33.0852 92.2464ZM-16.4585 81.0646L-12.9178 86.3293C-12.2191 87.3686 -12.4917 88.763 -13.532 89.4628L-20.6694 94.2631C-21.7087 94.9618 -23.103 94.6892 -23.8029 93.6489L-27.3436 88.3842C-28.0371 87.3534 -27.7697 85.9506 -26.7305 85.2519L-19.593 80.4516C-18.5515 79.7528 -17.1507 80.0348 -16.4585 81.0646ZM0.167171 69.884L3.70789 75.1487C4.40654 76.188 4.13397 77.5824 3.09372 78.2822L-4.04374 83.0825C-5.08301 83.7812 -6.47737 83.5086 -7.17725 82.4683L-10.7179 77.2036C-11.4114 76.1728 -11.144 74.77 -10.1038 74.0701L-2.96632 69.2698C-1.92586 68.5722 -0.524052 68.853 0.167171 69.884ZM16.7939 58.7022L20.3346 63.9669C21.0332 65.0062 20.7607 66.4006 19.7204 67.1004L12.5829 71.9007C11.5437 72.5993 10.1493 72.3268 9.44943 71.2865L5.90874 66.0218C5.21529 64.991 5.48261 63.5882 6.52288 62.8883L13.6603 58.088C14.7008 57.3904 16.1016 57.6724 16.7939 58.7022ZM33.4218 47.5214L36.9624 52.7861C37.6611 53.8254 37.3886 55.2198 36.3493 55.9184L29.2118 60.7187C28.1726 61.4173 26.7782 61.1448 26.0784 60.1045L22.5376 54.8398C21.8442 53.809 22.1115 52.4061 23.1518 51.7063L30.2893 46.906C31.3275 46.2085 32.7273 46.4918 33.4218 47.5214ZM50.0474 36.3408L53.5881 41.6055C54.2868 42.6448 54.0142 44.0392 52.975 44.7378L45.8375 49.5381C44.7983 50.2367 43.4039 49.9642 42.704 48.9239L39.1633 43.6592C38.4699 42.6284 38.7372 41.2255 39.7775 40.5257L46.915 35.7254C47.9532 35.0279 49.354 35.31 50.0474 36.3408ZM66.6741 25.159L70.2148 30.4237C70.9135 31.463 70.6409 32.8573 69.6006 33.5572L62.4632 38.3575C61.4239 39.0561 60.0296 38.7836 59.3297 37.7433L55.789 32.4785C55.0955 31.4478 55.3629 30.045 56.4032 29.3451L63.5406 24.5448C64.5799 23.8462 65.9807 24.1282 66.6741 25.159ZM83.2998 13.9784L86.8405 19.2431C87.5392 20.2824 87.2666 21.6767 86.2263 22.3766L79.0888 27.1769C78.0496 27.8755 76.6552 27.603 75.9553 26.5627L72.4147 21.298C71.7212 20.2672 71.9896 18.8631 73.0288 18.1645L80.1663 13.3642C81.2056 12.6656 82.6064 12.9476 83.2998 13.9784ZM99.9265 2.79657L103.467 8.06133C104.166 9.10057 103.893 10.4949 102.853 11.1948L95.7156 15.9951C94.6763 16.6937 93.2819 16.4212 92.5821 15.3809L89.0413 10.1162C88.3479 9.08541 88.6153 7.68254 89.6545 6.98388L96.792 2.18361C97.8322 1.48374 99.233 1.7658 99.9265 2.79657ZM116.552 -8.38403L120.093 -3.11927C120.792 -2.08001 120.519 -0.685649 119.479 0.0142193L112.341 4.81449C111.301 5.51436 109.908 5.24057 109.208 4.20029L105.667 -1.06443C104.974 -2.0952 105.241 -3.49805 106.281 -4.19792L113.419 -8.99819C114.459 -9.69806 115.859 -9.4148 116.552 -8.38403ZM133.179 -19.5658L136.72 -14.3011C137.418 -13.2618 137.146 -11.8675 136.105 -11.1676L128.968 -6.36732C127.929 -5.66867 126.534 -5.94124 125.834 -6.98151L122.294 -12.2462C121.601 -13.276 121.868 -14.6799 122.908 -15.3797L130.045 -20.18C131.085 -20.8787 132.485 -20.5966 133.179 -19.5658ZM149.805 -30.7476L153.346 -25.4829C154.045 -24.4436 153.772 -23.0493 152.732 -22.3494L145.595 -17.5491C144.555 -16.8505 143.161 -17.1231 142.461 -18.1633L138.92 -23.4281C138.227 -24.4588 138.494 -25.8617 139.535 -26.5615L146.672 -31.3618C147.711 -32.0605 149.112 -31.7784 149.805 -30.7476ZM166.431 -41.9283L169.972 -36.6635C170.671 -35.6242 170.398 -34.2299 169.358 -33.53L162.22 -28.7297C161.18 -28.0299 159.787 -28.3036 159.087 -29.3439L155.546 -34.6087C154.853 -35.6394 155.12 -37.0423 156.16 -37.7421L163.298 -42.5424C164.337 -43.2411 165.738 -42.959 166.431 -41.9283ZM183.057 -53.1089L186.598 -47.8441C187.296 -46.8048 187.024 -45.4105 185.984 -44.7118L178.847 -39.9116C177.808 -39.2129 176.413 -39.4855 175.713 -40.5257L172.173 -45.7905C171.479 -46.8213 171.747 -48.2241 172.787 -48.924L179.924 -53.7242C180.964 -54.4229 182.363 -54.1396 183.057 -53.1089ZM199.684 -64.2907L203.224 -59.0259C203.923 -57.9867 203.65 -56.5923 202.61 -55.8924L195.473 -51.0922C194.433 -50.3935 193.039 -50.6661 192.339 -51.7063L188.798 -56.9711C188.105 -58.0018 188.372 -59.4047 189.413 -60.1046L196.55 -64.9048C197.59 -65.6025 198.991 -65.3204 199.684 -64.2907ZM216.31 -75.4725L219.851 -70.2077C220.55 -69.1685 220.277 -67.7741 219.237 -67.0743L212.099 -62.274C211.059 -61.5741 209.666 -61.8479 208.966 -62.8882L205.425 -68.1529C204.732 -69.1837 204.999 -70.5865 206.039 -71.2864L213.177 -76.0866C214.217 -76.7843 215.618 -76.5022 216.31 -75.4725ZM232.936 -86.6531L236.477 -81.3883C237.175 -80.3491 236.903 -78.9547 235.863 -78.2561L228.726 -73.4558C227.687 -72.7571 226.292 -73.0297 225.592 -74.07L222.052 -79.3347C221.358 -80.3655 221.626 -81.7683 222.666 -82.4682L229.803 -87.2684C230.844 -87.9661 232.244 -87.6828 232.936 -86.6531ZM249.563 -97.8349L253.103 -92.5701C253.802 -91.5309 253.529 -90.1365 252.49 -89.4378L245.353 -84.6376C244.313 -83.9389 242.919 -84.2115 242.219 -85.2517L238.678 -90.5165C237.985 -91.5473 238.252 -92.9501 239.292 -93.6488L246.429 -98.449C247.47 -99.1467 248.87 -98.8646 249.563 -97.8349ZM308.724 -129.974L305.183 -135.239C304.49 -136.27 304.758 -137.674 305.797 -138.371L312.934 -143.172C313.974 -143.872 315.374 -143.588 316.067 -142.557L319.608 -137.293C320.307 -136.253 320.034 -134.859 318.994 -134.159L311.857 -129.359C310.818 -128.664 309.423 -128.935 308.724 -129.974ZM292.097 -118.795L288.556 -124.06C287.864 -125.089 288.131 -126.494 289.171 -127.193L296.308 -131.993C297.348 -132.693 298.748 -132.41 299.442 -131.379L302.982 -126.114C303.681 -125.075 303.408 -123.681 302.369 -122.982L295.232 -118.182C294.191 -117.482 292.797 -117.754 292.097 -118.795ZM275.472 -107.612L271.931 -112.877C271.238 -113.907 271.505 -115.31 272.545 -116.01L279.683 -120.81C280.723 -121.51 282.123 -121.227 282.816 -120.196L286.357 -114.932C287.056 -113.892 286.783 -112.498 285.743 -111.798L278.605 -106.998C277.565 -106.3 276.17 -106.573 275.472 -107.612ZM261.978 -95.8182C260.939 -95.1195 259.545 -95.3921 258.845 -96.4324L255.304 -101.697C254.611 -102.728 254.878 -104.131 255.917 -104.829L263.055 -109.63C264.094 -110.328 265.495 -110.046 266.188 -109.015L269.729 -103.751C270.428 -102.711 270.155 -101.317 269.115 -100.617L261.978 -95.8182ZM290.831 -6.76308L200.765 53.8075C197.905 55.7297 194.03 54.9709 192.107 52.1129L151.031 -8.96675C149.109 -11.826 149.868 -15.701 152.727 -17.6233L242.792 -78.1926C245.651 -80.1149 249.527 -79.3573 251.45 -76.498L292.526 -15.4184C294.45 -12.5615 293.69 -8.68535 290.831 -6.76308ZM401.052 -64.4946L397.505 -69.7688C396.811 -70.7996 397.08 -72.2037 398.119 -72.9023L405.256 -77.7026C406.297 -78.4024 407.696 -78.1192 408.39 -77.0884L411.936 -71.8152C412.629 -70.7844 412.362 -69.3815 411.322 -68.6817L404.184 -63.8814C403.145 -63.1828 401.744 -63.4649 401.052 -64.4946ZM384.425 -53.3128L380.879 -58.586C380.186 -59.6168 380.453 -61.0197 381.493 -61.7195L388.631 -66.5198C389.671 -67.2196 391.071 -66.9364 391.764 -65.9056L395.31 -60.6324C396.004 -59.6016 395.736 -58.1987 394.696 -57.4989L387.559 -52.6986C386.518 -52.001 385.117 -52.283 384.425 -53.3128ZM367.799 -42.1322L364.254 -47.4054C363.56 -48.4362 363.828 -49.8402 364.867 -50.5377L372.004 -55.338C373.044 -56.0378 374.444 -55.7546 375.138 -54.7238L378.684 -49.4506C379.377 -48.4198 379.11 -47.0169 378.069 -46.3171L370.932 -41.5168C369.892 -40.8204 368.492 -41.1024 367.799 -42.1322ZM351.172 -30.9514L347.624 -36.2256C346.931 -37.2564 347.199 -38.6604 348.239 -39.3591L355.376 -44.1594C356.416 -44.8592 357.816 -44.576 358.51 -43.5452L362.057 -38.271C362.75 -37.2402 362.483 -35.8374 361.444 -35.1387L354.306 -30.3384C353.266 -29.6385 351.865 -29.9206 351.172 -30.9514ZM334.546 -19.7686L331 -25.0418C330.307 -26.0726 330.574 -27.4754 331.614 -28.1753L338.752 -32.9755C339.792 -33.6754 341.192 -33.3922 341.885 -32.3614L345.431 -27.0881C346.125 -26.0574 345.857 -24.6545 344.817 -23.9547L337.68 -19.1544C336.639 -18.4568 335.238 -18.7388 334.546 -19.7686ZM317.919 -8.589L314.373 -13.8622C313.68 -14.893 313.947 -16.2958 314.986 -16.9945L322.124 -21.7948C323.163 -22.4934 324.564 -22.2114 325.257 -21.1806L328.805 -15.9064C329.498 -14.8756 329.231 -13.4727 328.19 -12.7728L321.053 -7.97258C320.013 -7.27614 318.613 -7.55822 317.919 -8.589ZM301.293 2.59282L297.747 -2.68039C297.053 -3.71115 297.321 -5.114 298.36 -5.81268L305.497 -10.6129C306.537 -11.3116 307.937 -11.0296 308.63 -9.99979L312.177 -4.72552C312.87 -3.69476 312.603 -2.29193 311.562 -1.59207L304.425 3.20819C303.387 3.90565 301.986 3.6236 301.293 2.59282ZM284.667 13.7734L281.121 8.50022C280.428 7.46945 280.695 6.06661 281.735 5.36674L288.873 0.566467C289.912 -0.132207 291.313 0.149855 292.006 1.18063L295.552 6.45385C296.245 7.48461 295.978 8.88745 294.939 9.58613L287.801 14.3864C286.761 15.0863 285.36 14.8042 284.667 13.7734ZM268.04 24.9552L264.494 19.682C263.801 18.6512 264.068 17.2484 265.108 16.5485L272.246 11.7483C273.286 11.0484 274.686 11.3317 275.379 12.3625L278.927 17.6367C279.62 18.6675 279.353 20.0703 278.312 20.7702L271.175 25.5704C270.134 26.2681 268.734 25.986 268.04 24.9552ZM251.415 36.1358L247.869 30.8626C247.175 29.8319 247.443 28.429 248.483 27.7291L255.62 22.9289C256.659 22.2302 258.06 22.5123 258.754 23.5431L262.3 28.8163C262.993 29.847 262.725 31.2511 261.685 31.9498L254.548 36.75C253.509 37.4487 252.108 37.1666 251.415 36.1358ZM234.788 47.3177L231.242 42.0444C230.548 41.0136 230.816 39.6108 231.856 38.911L238.994 34.1107C240.033 33.412 241.434 33.6941 242.126 34.7238L245.673 39.9981C246.366 41.0288 246.099 42.4317 245.06 43.1304L237.922 47.9306C236.882 48.6305 235.481 48.3484 234.788 47.3177ZM218.161 58.4995L214.615 53.2262C213.922 52.1955 214.189 50.7926 215.229 50.0927L222.367 45.2925C223.407 44.5926 224.807 44.8759 225.5 45.9066L229.046 51.1799C229.74 52.2107 229.472 53.6135 228.432 54.3134L221.295 59.1136C220.255 59.8123 218.855 59.5302 218.161 58.4995ZM201.535 69.6801L197.99 64.4068C197.296 63.3761 197.563 61.9732 198.604 61.2734L205.741 56.4731C206.78 55.7744 208.181 56.0565 208.875 57.0872L212.421 62.3605C213.114 63.3913 212.847 64.7941 211.806 65.494L204.669 70.2943C203.63 70.9929 202.229 70.7109 201.535 69.6801ZM184.909 80.8619L181.362 75.5876C180.669 74.5579 180.936 73.154 181.976 72.4541L189.113 67.6539C190.153 66.9552 191.553 67.2373 192.247 68.2681L195.793 73.5413C196.486 74.5721 196.219 75.9749 195.179 76.6748L188.041 81.475C187.002 82.1737 185.601 81.8916 184.909 80.8619ZM168.283 92.0425L164.737 86.7692C164.044 85.7385 164.311 84.3356 165.351 83.6358L172.489 78.8355C173.529 78.1356 174.929 78.4189 175.622 79.4497L179.168 84.7229C179.862 85.7537 179.594 87.1565 178.554 87.8564L171.417 92.6566C170.375 93.3555 168.975 93.0722 168.283 92.0425ZM151.656 103.224L148.109 97.95C147.416 96.9193 147.683 95.5164 148.722 94.8178L155.86 90.0175C156.899 89.3188 158.3 89.6009 158.993 90.6317L162.539 95.9049C163.233 96.9357 162.965 98.3385 161.925 99.0384L154.788 103.839C153.749 104.536 152.349 104.254 151.656 103.224ZM135.03 114.406L131.484 109.133C130.79 108.102 131.059 106.698 132.098 105.999L139.235 101.199C140.275 100.5 141.676 100.783 142.369 101.813L145.915 107.087C146.608 108.117 146.341 109.52 145.301 110.22L138.163 115.02C137.124 115.717 135.722 115.436 135.03 114.406ZM118.404 125.587L114.857 120.312C114.164 119.282 114.431 117.879 115.471 117.179L122.609 112.379C123.649 111.679 125.049 111.962 125.741 112.992L129.287 118.265C129.98 119.296 129.713 120.699 128.673 121.399L121.535 126.199C120.497 126.899 119.096 126.616 118.404 125.587ZM101.778 136.767L98.2325 131.494C97.539 130.463 97.8064 129.06 98.8457 128.362L105.983 123.562C107.022 122.863 108.423 123.145 109.117 124.176L112.663 129.449C113.356 130.48 113.089 131.883 112.048 132.582L104.911 137.383C103.87 138.08 102.47 137.798 101.778 136.767ZM85.1517 147.949L81.6058 142.676C80.9124 141.645 81.1797 140.242 82.22 139.542L89.3575 134.742C90.3967 134.043 91.7975 134.326 92.4909 135.356L96.0369 140.63C96.7303 141.66 96.463 143.063 95.4237 143.762L88.2862 148.562C87.2448 149.261 85.844 148.979 85.1517 147.949ZM68.5239 159.13L64.9779 153.857C64.2845 152.826 64.5518 151.423 65.5921 150.723L72.7296 145.923C73.7688 145.224 75.1696 145.506 75.863 146.537L79.409 151.81C80.1024 152.841 79.835 154.244 78.7948 154.944L71.6573 159.744C70.6181 160.443 69.2173 160.161 68.5239 159.13ZM51.8981 170.311L48.3522 165.037C47.6588 164.007 47.9261 162.604 48.9664 161.904L56.1039 157.104C57.1431 156.405 58.5439 156.687 59.2362 157.717L62.7821 162.99C63.4755 164.021 63.2082 165.424 62.1679 166.123L55.0304 170.924C53.9924 171.623 52.5916 171.341 51.8981 170.311ZM35.2715 181.492L31.7255 176.219C31.0321 175.188 31.2995 173.785 32.3397 173.086L39.4772 168.285C40.5164 167.587 41.9172 167.869 42.6107 168.9L46.1566 174.173C46.8501 175.204 46.5827 176.606 45.5424 177.306L38.405 182.106C37.3657 182.805 35.9649 182.523 35.2715 181.492ZM18.6458 192.673L15.0999 187.4C14.4064 186.369 14.6738 184.966 15.713 184.267L22.8505 179.467C23.8897 178.768 25.2906 179.051 25.9828 180.08L29.5299 185.355C30.2234 186.385 29.956 187.788 28.9158 188.488L21.7783 193.288C20.7391 193.987 19.3393 193.704 18.6458 192.673ZM2.01914 203.855L-1.52679 198.582C-2.22024 197.551 -1.9529 196.148 -0.91263 195.448L6.22482 190.648C7.26409 189.949 8.66488 190.231 9.35832 191.262L12.9043 196.535C13.5977 197.566 13.3304 198.969 12.2901 199.669L5.15264 204.469C4.11338 205.168 2.71259 204.886 2.01914 203.855ZM-14.6066 215.035L-18.1525 209.762C-18.8459 208.731 -18.5786 207.328 -17.5383 206.629L-10.4009 201.828C-9.3616 201.13 -7.96079 201.412 -7.26735 202.443L-3.72023 207.717C-3.02679 208.748 -3.29413 210.15 -4.3344 210.85L-11.4718 215.65C-12.5133 216.349 -13.9141 216.067 -14.6066 215.035ZM-31.2333 226.217L-34.7792 220.944C-35.4726 219.913 -35.2053 218.51 -34.165 217.81L-27.0275 213.01C-25.9882 212.311 -24.5875 212.594 -23.894 213.624L-20.3481 218.898C-19.6546 219.928 -19.922 221.331 -20.9623 222.031L-28.0998 226.831C-29.139 227.53 -30.5398 227.248 -31.2333 226.217ZM-47.8599 237.399L-51.4058 232.126C-52.0993 231.095 -51.8319 229.692 -50.7917 228.992L-43.6542 224.192C-42.6149 223.493 -41.2141 223.775 -40.5219 224.805L-36.9748 230.079C-36.2813 231.11 -36.5487 232.513 -37.589 233.213L-44.7264 238.013C-45.7669 238.711 -47.1665 238.43 -47.8599 237.399ZM-64.4856 248.58L-68.0315 243.306C-68.7249 242.276 -68.4576 240.873 -67.4173 240.173L-60.2799 235.373C-59.2406 234.674 -57.8398 234.956 -57.1464 235.987L-53.6005 241.26C-52.907 242.291 -53.1744 243.694 -54.2146 244.393L-61.3521 249.194C-62.3914 249.892 -63.7922 249.61 -64.4856 248.58ZM-81.1122 259.761L-84.6582 254.488C-85.3516 253.457 -85.0842 252.054 -84.044 251.355L-76.9065 246.554C-75.8673 245.856 -74.4665 246.138 -73.7731 247.169L-70.2272 252.442C-69.5337 253.473 -69.8011 254.875 -70.8413 255.575L-77.9788 260.376C-79.0192 261.073 -80.4188 260.792 -81.1122 259.761ZM-97.7379 270.942L-101.285 265.668C-101.977 264.638 -101.711 263.234 -100.671 262.534L-93.5334 257.734C-92.4942 257.035 -91.0934 257.317 -90.4011 258.347L-86.8552 263.62C-86.1618 264.651 -86.4291 266.054 -87.4684 266.753L-94.6059 271.553C-95.6459 272.255 -97.0445 271.973 -97.7379 270.942ZM-104.095 277.937L-111.232 282.737C-112.272 283.436 -113.672 283.154 -114.366 282.123L-117.912 276.85C-118.605 275.819 -118.338 274.416 -117.298 273.716L-110.16 268.916C-109.121 268.217 -107.72 268.499 -107.028 269.529L-103.482 274.802C-102.787 275.834 -103.055 277.237 -104.095 277.937Z" fill="white"/>
<g opacity="0.6">
<path d="M39.3313 66.1502C37.409 63.2909 33.533 62.5332 30.6747 64.4543L-59.3928 125.024C-62.252 126.946 -63.0096 130.822 -61.0874 133.681L-20.0113 194.761C-18.089 197.62 -14.213 198.378 -11.3538 196.456L78.7137 135.886C81.572 133.965 82.3306 130.088 80.4084 127.229L39.3313 66.1502Z" fill="white"/>
<path d="M145.391 -5.17508C143.469 -8.03435 139.593 -8.79198 136.734 -6.86971L46.6674 53.7009C43.8081 55.6231 43.0495 59.5003 44.9715 62.3574L86.0476 123.437C87.9699 126.296 91.8449 127.055 94.7052 125.132L184.771 64.5611C187.631 62.6388 188.389 58.7616 186.467 55.9045L145.391 -5.17508Z" fill="white"/>
<path d="M251.451 -76.5017C249.528 -79.361 245.652 -80.1186 242.793 -78.1964L152.727 -17.6258C149.868 -15.7035 149.109 -11.8263 151.031 -8.96929L192.107 52.1103C194.029 54.9696 197.904 55.7284 200.765 53.805L290.831 -6.76561C293.69 -8.68788 294.449 -12.5651 292.526 -15.4232L251.451 -76.5017Z" fill="white"/>
<path d="M336.209 -141.017L395.482 -91.3609L398.587 -86.745C400.509 -83.8857 399.749 -80.0095 396.891 -78.0884L306.825 -17.5179C303.964 -15.5945 300.089 -16.3533 298.167 -19.2125L257.091 -80.2921C255.169 -83.1514 255.928 -87.0264 258.787 -88.9487L336.209 -141.017Z" fill="white"/>
</g>
</g>
</svg>
