<svg width="" height="" viewBox="0 0 393 852" fill="none" xmlns="http://www.w3.org/2000/svg">
<path opacity="0.03" d="M622 426C622 661.273 431.273 852 196 852C-39.2733 852 -230 661.273 -230 426C-230 190.727 -39.2733 0 196 0C431.273 0 622 190.727 622 426ZM-175.973 426C-175.973 631.435 -9.43513 797.973 196 797.973C401.435 797.973 567.973 631.435 567.973 426C567.973 220.565 401.435 54.0268 196 54.0268C-9.43513 54.0268 -175.973 220.565 -175.973 426Z" fill="#F2F2F2"/>
<path opacity="0.03" d="M543 426C543 617.643 387.643 773 196 773C4.35719 773 -151 617.643 -151 426C-151 234.357 4.35719 79 196 79C387.643 79 543 234.357 543 426ZM-105.779 426C-105.779 592.668 29.3319 727.779 196 727.779C362.668 727.779 497.779 592.668 497.779 426C497.779 259.332 362.668 124.221 196 124.221C29.3319 124.221 -105.779 259.332 -105.779 426Z" fill="#F2F2F2"/>
<path opacity="0.03" d="M461 426C461 572.355 342.355 691 196 691C49.6445 691 -69 572.355 -69 426C-69 279.645 49.6445 161 196 161C342.355 161 461 279.645 461 426ZM-29.25 426C-29.25 550.402 71.5979 651.25 196 651.25C320.402 651.25 421.25 550.402 421.25 426C421.25 301.598 320.402 200.75 196 200.75C71.5979 200.75 -29.25 301.598 -29.25 426Z" fill="#F2F2F2"/>
</svg>
