<svg width="169" height="204" viewBox="0 0 169 204" fill="none" xmlns="http://www.w3.org/2000/svg">
<path d="M17.3303 90.6817C35.9484 40.966 49.5031 1.7768 53.8881 2.65281C57.6998 0.385974 59.4656 3.96656 59.872 6.04021C60.5874 5.10199 62.7466 4.03286 65.6595 7.26208C68.5723 10.4913 67.6332 13.7787 66.7995 15.0187C74.9892 21.4121 77.3214 26.2778 79.4136 36.145C79.8337 35.9614 81.1264 35.7714 82.9374 36.4805C84.7484 37.1896 86.8412 39.4015 87.6612 40.4188L90.3968 44.1008C91.4923 45.7481 94.2304 49.7792 96.4188 52.7247C98.6073 55.6703 99.049 58.4541 98.9962 59.4777C110.491 70.6622 110.791 75.5838 109.505 76.6466L17.3303 90.6817Z" fill="#FD6809"/>
<path d="M13.2748 91.7044L48.1989 2.51367L108.147 76.1147L13.2748 91.7044Z" stroke="#F2F2F2" stroke-width="1.94486" stroke-linecap="round" stroke-linejoin="round"/>
<path d="M75.6936 120.323C87.4031 137.092 119.196 172.446 152.693 179.714" stroke="#F2F2F2" stroke-width="1.94486" stroke-linecap="round" stroke-linejoin="round"/>
<path d="M42.9433 86.6125L52.5846 108.663C48.749 123.348 44.3337 153.471 57.3575 156.482C73.6372 160.246 74.4282 144.891 74.6082 132.43C74.7522 122.461 73.0941 116.293 72.2471 114.456M72.2471 114.456C80.159 121.489 92.2296 129.77 102.485 129.247C119.002 128.404 117.646 115.864 112.371 110.665C108.152 106.507 86.6632 101.643 76.4464 99.7312C71.8344 94.6183 62.5553 84.2664 62.335 83.7624L52.2355 85.5516L66.5815 108.922C68.0283 110.502 69.9647 112.427 72.2471 114.456Z" stroke="#F2F2F2" stroke-width="1.94486" stroke-linecap="round" stroke-linejoin="round"/>
<path d="M113.509 130.43C120.693 137.42 139.38 151.839 156.656 153.591" stroke="#F2F2F2" stroke-width="1.94486" stroke-linecap="round" stroke-linejoin="round"/>
<path d="M98.6064 129.817C107.955 140.614 131.585 162.677 151.318 164.556" stroke="#F2F2F2" stroke-width="1.94486" stroke-linecap="round" stroke-linejoin="round"/>
<path d="M26.3443 100.999L30.0481 88.8733L37.1748 88.0088L37.3493 99.5647L40.8922 102.518C47.7412 110.631 41.264 112.237 37.1693 112.026C33.6848 129.459 29.0627 122.95 27.1871 117.516C15.1692 123.671 21.236 114.49 25.7716 109.13C22.6806 110.356 16.7232 111.435 17.6222 105.939C18.5211 100.442 23.8115 100.356 26.3443 100.999Z" stroke="#F2F2F2" stroke-width="1.94486" stroke-linecap="round" stroke-linejoin="round"/>
<path d="M96.7462 85.2268L88.4004 79.8703L81.0966 81.1874L91.0951 90.3241C86.007 95.8508 92.3606 94.6488 96.1735 93.357C91.5719 106.176 98.7181 99.7491 102.866 94.9334C119.796 98.6383 112.31 93.9316 106.45 91.1151C108.367 89.7769 111.581 86.5452 109.109 84.3241C106.637 82.1029 99.8372 84.0004 96.7462 85.2268Z" stroke="#F2F2F2" stroke-width="1.94486" stroke-linecap="round" stroke-linejoin="round"/>
<path d="M45.5861 65.1943C48.8335 68.9026 57.6439 74.4063 66.906 66.7543" stroke="#F2F2F2" stroke-width="1.20576" stroke-linecap="round" stroke-linejoin="round"/>
<path d="M38.7595 45.29C40.425 50.8157 45.5206 58.694 52.5791 46.0019" stroke="#F2F2F2" stroke-width="1.20576" stroke-linecap="round" stroke-linejoin="round"/>
<path d="M60.8867 46.122C62.3422 51.7394 67.0178 59.8014 74.0763 47.1093" stroke="#F2F2F2" stroke-width="1.20576" stroke-linecap="round" stroke-linejoin="round"/>
<path d="M61.0011 61.8314C59.7157 65.1142 56.2331 66.7525 53.2636 65.5898C50.294 64.427 48.8498 60.8595 50.1353 57.5767C51.4207 54.294 54.9033 52.6557 57.8728 53.8184C60.8423 54.9812 62.2865 58.5487 61.0011 61.8314Z" stroke="#F2F2F2" stroke-width="0.972432"/>
<path d="M13.7275 91.8814L48.297 3.59619L106.611 76.0353L13.7275 91.8814Z" stroke="#F2F2F2" stroke-width="1.45865" stroke-linecap="round" stroke-linejoin="round"/>
<ellipse cx="84.5" cy="189.615" rx="84.1308" ry="13.5" transform="rotate(0.16019 84.5 189.615)" fill="white" fill-opacity="0.04"/>
</svg>
