<svg width="24" height="25" viewBox="0 0 24 25" fill="none" xmlns="http://www.w3.org/2000/svg">
<g clip-path="url(#clip0_45_496)">
<path d="M19.5925 11.8616C19.7879 12.1052 19.8961 12.4217 19.8961 12.7499C19.8961 13.0781 19.7879 13.3947 19.5925 13.6383C18.355 15.1366 15.5382 18.0536 12.25 18.0536C8.96175 18.0536 6.14496 15.1366 4.90746 13.6383C4.712 13.3947 4.60381 13.0781 4.60381 12.7499C4.60381 12.4217 4.712 12.1052 4.90746 11.8616C6.14496 10.3633 8.96175 7.44629 12.25 7.44629C15.5382 7.44629 18.355 10.3633 19.5925 11.8616Z" stroke="#C4C4C4" stroke-width="1.5" stroke-linecap="round" stroke-linejoin="round"/>
<path d="M12.25 15.1069C13.5518 15.1069 14.6071 14.0515 14.6071 12.7497C14.6071 11.4479 13.5518 10.3926 12.25 10.3926C10.9482 10.3926 9.89285 11.4479 9.89285 12.7497C9.89285 14.0515 10.9482 15.1069 12.25 15.1069Z" stroke="#C4C4C4" stroke-width="1.5" stroke-linecap="round" stroke-linejoin="round"/>
</g>
<defs>
<clipPath id="clip0_45_496">
<rect width="16.5" height="16.5" fill="white" transform="translate(4 4.5)"/>
</clipPath>
</defs>
</svg>
