<svg width="24" height="24" viewBox="0 0 24 24" fill="none" xmlns="http://www.w3.org/2000/svg">
<path d="M9.71154 4H5.90385C5.39891 4 4.91466 4.20058 4.55762 4.55762C4.20058 4.91466 4 5.39891 4 5.90385V9.71154C4 9.87985 4.06686 10.0413 4.18587 10.1603C4.30489 10.2793 4.4663 10.3462 4.63462 10.3462C4.80293 10.3462 4.96434 10.2793 5.08336 10.1603C5.20237 10.0413 5.26923 9.87985 5.26923 9.71154V5.90385C5.26923 5.73554 5.33609 5.57412 5.45511 5.45511C5.57412 5.33609 5.73554 5.26923 5.90385 5.26923H9.71154C9.87985 5.26923 10.0413 5.20237 10.1603 5.08336C10.2793 4.96434 10.3462 4.80293 10.3462 4.63462C10.3462 4.4663 10.2793 4.30489 10.1603 4.18587C10.0413 4.06686 9.87985 4 9.71154 4Z" fill="#C4C4C4"/>
<path d="M9.71154 4H5.90385C5.39891 4 4.91466 4.20058 4.55762 4.55762C4.20058 4.91466 4 5.39891 4 5.90385V9.71154C4 9.87985 4.06686 10.0413 4.18587 10.1603C4.30489 10.2793 4.4663 10.3462 4.63462 10.3462C4.80293 10.3462 4.96434 10.2793 5.08336 10.1603C5.20237 10.0413 5.26923 9.87985 5.26923 9.71154V5.90385C5.26923 5.73554 5.33609 5.57412 5.45511 5.45511C5.57412 5.33609 5.73554 5.26923 5.90385 5.26923H9.71154C9.87985 5.26923 10.0413 5.20237 10.1603 5.08336C10.2793 4.96434 10.3462 4.80293 10.3462 4.63462C10.3462 4.4663 10.2793 4.30489 10.1603 4.18587C10.0413 4.06686 9.87985 4 9.71154 4Z" stroke="#C4C4C4"/>
<path d="M18.5961 4H14.7884C14.6201 4 14.4587 4.06686 14.3397 4.18587C14.2207 4.30489 14.1538 4.4663 14.1538 4.63462C14.1538 4.80293 14.2207 4.96434 14.3397 5.08336C14.4587 5.20237 14.6201 5.26923 14.7884 5.26923H18.5961C18.7644 5.26923 18.9258 5.33609 19.0449 5.45511C19.1639 5.57412 19.2307 5.73554 19.2307 5.90385V9.71154C19.2307 9.87985 19.2976 10.0413 19.4166 10.1603C19.5356 10.2793 19.697 10.3462 19.8653 10.3462C20.0337 10.3462 20.1951 10.2793 20.3141 10.1603C20.4331 10.0413 20.5 9.87985 20.5 9.71154V5.90385C20.5 5.39891 20.2994 4.91466 19.9423 4.55762C19.5853 4.20058 19.101 4 18.5961 4Z" fill="#C4C4C4"/>
<path d="M18.5961 4H14.7884C14.6201 4 14.4587 4.06686 14.3397 4.18587C14.2207 4.30489 14.1538 4.4663 14.1538 4.63462C14.1538 4.80293 14.2207 4.96434 14.3397 5.08336C14.4587 5.20237 14.6201 5.26923 14.7884 5.26923H18.5961C18.7644 5.26923 18.9258 5.33609 19.0449 5.45511C19.1639 5.57412 19.2307 5.73554 19.2307 5.90385V9.71154C19.2307 9.87985 19.2976 10.0413 19.4166 10.1603C19.5356 10.2793 19.697 10.3462 19.8653 10.3462C20.0337 10.3462 20.1951 10.2793 20.3141 10.1603C20.4331 10.0413 20.5 9.87985 20.5 9.71154V5.90385C20.5 5.39891 20.2994 4.91466 19.9423 4.55762C19.5853 4.20058 19.101 4 18.5961 4Z" stroke="#C4C4C4"/>
<path d="M19.8653 14.1538C19.697 14.1538 19.5356 14.2207 19.4166 14.3397C19.2976 14.4587 19.2307 14.6201 19.2307 14.7884V18.5961C19.2307 18.7644 19.1639 18.9258 19.0449 19.0449C18.9258 19.1639 18.7644 19.2307 18.5961 19.2307H14.7884C14.6201 19.2307 14.4587 19.2976 14.3397 19.4166C14.2207 19.5356 14.1538 19.697 14.1538 19.8653C14.1538 20.0337 14.2207 20.1951 14.3397 20.3141C14.4587 20.4331 14.6201 20.5 14.7884 20.5H18.5961C19.101 20.5 19.5853 20.2994 19.9423 19.9423C20.2994 19.5853 20.5 19.101 20.5 18.5961V14.7884C20.5 14.6201 20.4331 14.4587 20.3141 14.3397C20.1951 14.2207 20.0337 14.1538 19.8653 14.1538Z" fill="#C4C4C4"/>
<path d="M19.8653 14.1538C19.697 14.1538 19.5356 14.2207 19.4166 14.3397C19.2976 14.4587 19.2307 14.6201 19.2307 14.7884V18.5961C19.2307 18.7644 19.1639 18.9258 19.0449 19.0449C18.9258 19.1639 18.7644 19.2307 18.5961 19.2307H14.7884C14.6201 19.2307 14.4587 19.2976 14.3397 19.4166C14.2207 19.5356 14.1538 19.697 14.1538 19.8653C14.1538 20.0337 14.2207 20.1951 14.3397 20.3141C14.4587 20.4331 14.6201 20.5 14.7884 20.5H18.5961C19.101 20.5 19.5853 20.2994 19.9423 19.9423C20.2994 19.5853 20.5 19.101 20.5 18.5961V14.7884C20.5 14.6201 20.4331 14.4587 20.3141 14.3397C20.1951 14.2207 20.0337 14.1538 19.8653 14.1538Z" stroke="#C4C4C4"/>
<path d="M9.71154 19.2307H5.90385C5.73554 19.2307 5.57412 19.1639 5.45511 19.0449C5.33609 18.9258 5.26923 18.7644 5.26923 18.5961V14.7884C5.26923 14.6201 5.20237 14.4587 5.08336 14.3397C4.96434 14.2207 4.80293 14.1538 4.63462 14.1538C4.4663 14.1538 4.30489 14.2207 4.18587 14.3397C4.06686 14.4587 4 14.6201 4 14.7884V18.5961C4 19.101 4.20058 19.5853 4.55762 19.9423C4.91466 20.2994 5.39891 20.5 5.90385 20.5H9.71154C9.87985 20.5 10.0413 20.4331 10.1603 20.3141C10.2793 20.1951 10.3462 20.0337 10.3462 19.8653C10.3462 19.697 10.2793 19.5356 10.1603 19.4166C10.0413 19.2976 9.87985 19.2307 9.71154 19.2307Z" fill="#C4C4C4"/>
<path d="M9.71154 19.2307H5.90385C5.73554 19.2307 5.57412 19.1639 5.45511 19.0449C5.33609 18.9258 5.26923 18.7644 5.26923 18.5961V14.7884C5.26923 14.6201 5.20237 14.4587 5.08336 14.3397C4.96434 14.2207 4.80293 14.1538 4.63462 14.1538C4.4663 14.1538 4.30489 14.2207 4.18587 14.3397C4.06686 14.4587 4 14.6201 4 14.7884V18.5961C4 19.101 4.20058 19.5853 4.55762 19.9423C4.91466 20.2994 5.39891 20.5 5.90385 20.5H9.71154C9.87985 20.5 10.0413 20.4331 10.1603 20.3141C10.2793 20.1951 10.3462 20.0337 10.3462 19.8653C10.3462 19.697 10.2793 19.5356 10.1603 19.4166C10.0413 19.2976 9.87985 19.2307 9.71154 19.2307Z" stroke="#C4C4C4"/>
</svg>
