<svg width="24" height="24" viewBox="0 0 24 24" fill="none" xmlns="http://www.w3.org/2000/svg">
<g clip-path="url(#clip0_53_1811)">
<path d="M4.28572 7.5H19.7143" stroke="#C4C4C4" stroke-linecap="round" stroke-linejoin="round"/>
<path d="M6.21429 7.5H17.7857V19.0714C17.7857 19.4124 17.6502 19.7395 17.4091 19.9806C17.1681 20.2216 16.841 20.3571 16.5 20.3571H7.50001C7.15901 20.3571 6.83199 20.2216 6.59087 19.9806C6.34976 19.7395 6.21429 19.4124 6.21429 19.0714V7.5Z" stroke="#C4C4C4" stroke-linecap="round" stroke-linejoin="round"/>
<path d="M8.78572 7.50021V6.85735C8.78572 6.00487 9.12437 5.1873 9.72716 4.5845C10.33 3.98171 11.1475 3.64307 12 3.64307C12.8525 3.64307 13.6701 3.98171 14.2729 4.5845C14.8756 5.1873 15.2143 6.00487 15.2143 6.85735V7.50021" stroke="#C4C4C4" stroke-linecap="round" stroke-linejoin="round"/>
<path d="M10.0714 11.3594V16.5042" stroke="#C4C4C4" stroke-linecap="round" stroke-linejoin="round"/>
<path d="M13.9286 11.3594V16.5042" stroke="#C4C4C4" stroke-linecap="round" stroke-linejoin="round"/>
</g>
<defs>
<clipPath id="clip0_53_1811">
<rect width="18" height="18" fill="white" transform="translate(3 3)"/>
</clipPath>
</defs>
</svg>
