<svg width="25" height="24" viewBox="0 0 25 24" fill="none" xmlns="http://www.w3.org/2000/svg">
<g clip-path="url(#clip0_45_558)">
<path d="M5.84618 18.8529C5.85079 19.1208 5.92874 19.3824 6.07155 19.609C6.21435 19.8357 6.41656 20.0189 6.65618 20.1386C6.89546 20.2739 7.16563 20.345 7.44046 20.345C7.7153 20.345 7.98548 20.2739 8.22475 20.1386L19.3462 13.2601C19.5881 13.1435 19.7923 12.961 19.9353 12.7336C20.0781 12.5061 20.1538 12.243 20.1538 11.9744C20.1538 11.7058 20.0781 11.4426 19.9353 11.2152C19.7923 10.9878 19.5881 10.8052 19.3462 10.6887L8.22475 3.86152C7.98548 3.72632 7.7153 3.65527 7.44046 3.65527C7.16563 3.65527 6.89546 3.72632 6.65618 3.86152C6.41656 3.98134 6.21435 4.16454 6.07155 4.39122C5.92874 4.61789 5.85079 4.87937 5.84618 5.14724V18.8529Z" fill="" stroke="" stroke-width="1.5" stroke-linecap="round" stroke-linejoin="round"/>
</g>
<defs>
<clipPath id="clip0_45_558">
<rect width="18" height="18" fill="white" transform="translate(4 3)"/>
</clipPath>
</defs>
</svg>
