<svg width="24" height="24" viewBox="0 0 24 24" fill="none" xmlns="http://www.w3.org/2000/svg">
<g clip-path="url(#clip0_53_1835)">
<path d="M9.42857 18.737L3.64285 20.357L5.26285 14.5713L15.8571 4.02844C15.9768 3.90598 16.1199 3.80868 16.2777 3.74225C16.4356 3.67582 16.6052 3.6416 16.7764 3.6416C16.9477 3.6416 17.1173 3.67582 17.2752 3.74225C17.4329 3.80868 17.576 3.90598 17.6957 4.02844L19.9714 6.31701C20.0919 6.43653 20.1876 6.57874 20.2529 6.73541C20.3182 6.89209 20.3517 7.06014 20.3517 7.22987C20.3517 7.3996 20.3182 7.56765 20.2529 7.72433C20.1876 7.88101 20.0919 8.02321 19.9714 8.14273L9.42857 18.737Z" stroke="#C4C4C4" stroke-linecap="round" stroke-linejoin="round"/>
</g>
<defs>
<clipPath id="clip0_53_1835">
<rect width="18" height="18" fill="white" transform="translate(3 3)"/>
</clipPath>
</defs>
</svg>
