<svg width="25" height="24" viewBox="0 0 25 24" fill="none" xmlns="http://www.w3.org/2000/svg">
<g clip-path="url(#clip0_55_4261)">
<path d="M8.24121 10.2725C8.24121 9.56246 8.81685 8.98682 9.52693 8.98682H19.4912C20.2013 8.98682 20.7769 9.56246 20.7769 10.2725V17.9868C20.7769 18.6969 20.2013 19.2725 19.4912 19.2725H9.52693C8.81685 19.2725 8.24121 18.6969 8.24121 17.9868V10.2725Z" stroke="" stroke-linecap="round" stroke-linejoin="round"/>
<path d="M17.0001 6.69664V6.33503C17.0001 5.62496 16.4245 5.04932 15.7144 5.04932H5.75007C5.04 5.04932 4.46436 5.62496 4.46436 6.33503V14.0493C4.46436 14.7594 5.04 15.335 5.75007 15.335H5.99114" stroke="" stroke-linecap="round" stroke-linejoin="round"/>
<path d="M13.1428 11.7188L17 14.1295L13.1428 16.5401V11.7188Z" stroke="" stroke-linecap="round" stroke-linejoin="round"/>
</g>
<defs>
<clipPath id="clip0_55_4261">
<rect width="18" height="18" fill="white" transform="translate(3.5 3)"/>
</clipPath>
</defs>
</svg>
