<svg width="25" height="24" viewBox="0 0 25 24" fill="none" xmlns="http://www.w3.org/2000/svg">
<g clip-path="url(#clip0_49_662)">
<path d="M10.0243 5.89307L10.5772 4.46592C10.6704 4.22429 10.8344 4.01645 11.0478 3.86962C11.2612 3.7228 11.5139 3.64383 11.7729 3.64307H12.8272C13.0862 3.64383 13.3389 3.7228 13.5522 3.86962C13.7656 4.01645 13.9296 4.22429 14.0229 4.46592L14.5757 5.89307L16.4528 6.97307L17.97 6.74164C18.2226 6.70735 18.4797 6.74893 18.7087 6.86111C18.9376 6.97328 19.128 7.15098 19.2557 7.37164L19.77 8.27164C19.9017 8.4958 19.9626 8.75466 19.9442 9.01404C19.9258 9.27342 19.8292 9.52113 19.6671 9.72449L18.7285 10.9202V13.0802L19.6928 14.2759C19.8549 14.4793 19.9515 14.727 19.9699 14.9864C19.9883 15.2458 19.9275 15.5046 19.7957 15.7288L19.2814 16.6288C19.1537 16.8494 18.9633 17.0271 18.7344 17.1393C18.5055 17.2515 18.2483 17.2931 17.9957 17.2588L16.4785 17.0274L14.6014 18.1074L14.0486 19.5345C13.9553 19.7761 13.7913 19.984 13.5779 20.1308C13.3646 20.2776 13.1119 20.3566 12.8529 20.3574H11.7729C11.5139 20.3566 11.2612 20.2776 11.0478 20.1308C10.8344 19.984 10.6704 19.7761 10.5772 19.5345L10.0243 18.1074L8.14716 17.0274L6.63001 17.2588C6.3774 17.2931 6.12028 17.2515 5.89135 17.1393C5.66242 17.0271 5.47201 16.8494 5.3443 16.6288L4.83001 15.7288C4.69823 15.5046 4.63752 15.2458 4.65588 14.9864C4.67424 14.727 4.77082 14.4793 4.93287 14.2759L5.87144 13.0802V10.9202L4.90716 9.72449C4.74511 9.52113 4.64852 9.27342 4.63016 9.01404C4.6118 8.75466 4.67251 8.4958 4.8043 8.27164L5.31859 7.37164C5.4463 7.15098 5.63671 6.97328 5.86563 6.86111C6.09457 6.74893 6.35168 6.70735 6.6043 6.74164L8.12144 6.97307L10.0243 5.89307ZM9.72859 12.0002C9.72859 12.5088 9.8794 13.0059 10.1619 13.4288C10.4445 13.8517 10.8461 14.1813 11.316 14.3759C11.7858 14.5705 12.3029 14.6214 12.8017 14.5222C13.3005 14.423 13.7587 14.1781 14.1183 13.8185C14.4779 13.4589 14.7228 13.0007 14.822 12.5019C14.9213 12.0031 14.8703 11.486 14.6757 11.0162C14.4811 10.5463 14.1515 10.1447 13.7286 9.86214C13.3058 9.57959 12.8086 9.42878 12.3 9.42878C11.618 9.42878 10.964 9.69969 10.4817 10.1819C9.99951 10.6642 9.72859 11.3182 9.72859 12.0002Z" stroke="" stroke-width="1.5" stroke-linecap="round" stroke-linejoin="round"/>
</g>
<defs>
<clipPath id="clip0_49_662">
<rect width="18" height="18" fill="white" transform="translate(3.30005 3)"/>
</clipPath>
</defs>
</svg>
