<svg width="25" height="24" viewBox="0 0 25 24" fill="none" xmlns="http://www.w3.org/2000/svg">
<g clip-path="url(#clip0_49_556)">
<path d="M14.4214 6.21436H6.7071C5.99703 6.21436 5.42139 6.79 5.42139 7.50007V19.0715C5.42139 19.7816 5.99703 20.3572 6.7071 20.3572H14.4214C15.1315 20.3572 15.7071 19.7816 15.7071 19.0715V7.50007C15.7071 6.79 15.1315 6.21436 14.4214 6.21436Z" stroke="" stroke-width="1.5" stroke-linecap="round" stroke-linejoin="round"/>
<path d="M7.99292 9.42871H13.1358" stroke="" stroke-width="1.5" stroke-linecap="round" stroke-linejoin="round"/>
<path d="M7.99292 12.6431H13.1358" stroke="" stroke-width="1.5" stroke-linecap="round" stroke-linejoin="round"/>
<path d="M7.99292 15.8574H10.5643" stroke="" stroke-width="1.5" stroke-linecap="round" stroke-linejoin="round"/>
<path d="M8.63574 3.64307H16.9929C17.3339 3.64307 17.6609 3.77853 17.902 4.01964C18.1431 4.26076 18.2786 4.58778 18.2786 4.92878V17.1431" stroke="" stroke-width="1.5" stroke-linecap="round" stroke-linejoin="round"/>
</g>
<defs>
<clipPath id="clip0_49_556">
<rect width="18" height="18" fill="white" transform="translate(2.84985 3)"/>
</clipPath>
</defs>
</svg>
