<svg width="25" height="24" viewBox="0 0 25 24" fill="none" xmlns="http://www.w3.org/2000/svg">
<g clip-path="url(#clip0_45_1188)">
<path d="M3.49286 3.64307V20.3574" stroke="#F2F2F2" stroke-width="1.5" stroke-linecap="round" stroke-linejoin="round"/>
<path d="M20.1814 17.9914C20.182 18.2227 20.1203 18.4499 20.0027 18.649C19.8849 18.8482 19.7157 19.0119 19.5128 19.1228C19.3174 19.2357 19.0957 19.2951 18.87 19.2951C18.6443 19.2951 18.4227 19.2357 18.2271 19.1228L8.98289 13.08C8.80244 12.9635 8.65407 12.8036 8.55134 12.6149C8.44861 12.4262 8.39478 12.2148 8.39478 12C8.39478 11.7852 8.44861 11.5738 8.55134 11.3852C8.65407 11.1965 8.80244 11.0366 8.98289 10.92L18.2528 4.92859C18.4484 4.81575 18.67 4.75635 18.8957 4.75635C19.1215 4.75635 19.3431 4.81575 19.5385 4.92859C19.7416 5.03962 19.9106 5.20331 20.0284 5.40243C20.146 5.60156 20.2078 5.82874 20.2071 6.06002L20.1814 17.9914Z" stroke="#F2F2F2" stroke-width="1.5" stroke-linecap="round" stroke-linejoin="round"/>
</g>
<defs>
<clipPath id="clip0_45_1188">
<rect width="18" height="18" fill="white" transform="translate(2.84998 3)"/>
</clipPath>
</defs>
</svg>
