<svg width="25" height="24" viewBox="0 0 25 24" fill="none" xmlns="http://www.w3.org/2000/svg">
<g clip-path="url(#clip0_45_1183)">
<path d="M21.6072 3.64307V20.3574" stroke="#F2F2F2" stroke-width="1.5" stroke-linecap="round" stroke-linejoin="round"/>
<path d="M4.9186 17.9914C4.91797 18.2227 4.97974 18.4499 5.09741 18.649C5.21507 18.8482 5.38427 19.0119 5.58717 19.1228C5.78262 19.2357 6.00434 19.2951 6.23003 19.2951C6.45572 19.2951 6.67743 19.2357 6.87288 19.1228L16.1172 13.08C16.2976 12.9635 16.446 12.8036 16.5487 12.6149C16.6514 12.4262 16.7053 12.2148 16.7053 12C16.7053 11.7852 16.6514 11.5738 16.5487 11.3852C16.446 11.1965 16.2976 11.0366 16.1172 10.92L6.84717 4.92859C6.65171 4.81575 6.43001 4.75635 6.20431 4.75635C5.97863 4.75635 5.75691 4.81575 5.56145 4.92859C5.35856 5.03962 5.18936 5.20331 5.07169 5.40243C4.95403 5.60156 4.89226 5.82874 4.89289 6.06002L4.9186 17.9914Z" stroke="#F2F2F2" stroke-width="1.5" stroke-linecap="round" stroke-linejoin="round"/>
</g>
<defs>
<clipPath id="clip0_45_1183">
<rect width="18" height="18" fill="white" transform="translate(4.25 3)"/>
</clipPath>
</defs>
</svg>
